<svg xmlns="http://www.w3.org/2000/svg" width="960" height="500"><defs><style>.current{fill:#2aa748}.active{fill:#47b4ff}.maintenance,.tick text{fill:#89a19d}.bar-join,.label{fill:#fff}.bar-join.current{display:none}.tick text{font:16px sans-serif}.axis--y .tick text{text-anchor:end}.label{font:20px sans-serif;font-weight:100;text-anchor:start;dominant-baseline:middle;text-transform:uppercase}</style></defs><g id="bar-container"><g fill="none" class="axis axis--x" font-family="sans-serif" font-size="10" text-anchor="middle"><g class="tick"><path stroke="#89a19d" d="M110.687 30v440"/><text x=".5" fill="#000" dy="-10" transform="translate(110.187 30)">Jan 2024</text></g><g class="tick"><path stroke="#89a19d" stroke-dasharray="2,2" d="M178.74 30v440"/><text x=".5" fill="#000" dy="-10" transform="translate(178.24 30)">Apr 2024</text></g><g class="tick"><path stroke="#89a19d" d="M246.824 30v440"/><text x=".5" fill="#000" dy="-10" transform="translate(246.324 30)">Jul 2024</text></g><g class="tick"><path stroke="#89a19d" stroke-dasharray="2,2" d="M315.656 30v440"/><text x=".5" fill="#000" dy="-10" transform="translate(315.156 30)">Oct 2024</text></g><g class="tick"><path stroke="#89a19d" d="M384.52 30v440"/><text x=".5" fill="#000" dy="-10" transform="translate(384.02 30)">Jan 2025</text></g><g class="tick"><path stroke="#89a19d" stroke-dasharray="2,2" d="M451.824 30v440"/><text x=".5" fill="#000" dy="-10" transform="translate(451.324 30)">Apr 2025</text></g><g class="tick"><path stroke="#89a19d" d="M519.908 30v440"/><text x=".5" fill="#000" dy="-10" transform="translate(519.408 30)">Jul 2025</text></g><g class="tick"><path stroke="#89a19d" stroke-dasharray="2,2" d="M588.74 30v440"/><text x=".5" fill="#000" dy="-10" transform="translate(588.24 30)">Oct 2025</text></g><g class="tick"><path stroke="#89a19d" d="M657.603 30v440"/><text x=".5" fill="#000" dy="-10" transform="translate(657.103 30)">Jan 2026</text></g><g class="tick"><path stroke="#89a19d" stroke-dasharray="2,2" d="M724.908 30v440"/><text x=".5" fill="#000" dy="-10" transform="translate(724.408 30)">Apr 2026</text></g><g class="tick"><path stroke="#89a19d" d="M792.992 30v440"/><text x=".5" fill="#000" dy="-10" transform="translate(792.492 30)">Jul 2026</text></g><g class="tick"><path stroke="#89a19d" stroke-dasharray="2,2" d="M861.824 30v440"/><text x=".5" fill="#000" dy="-10" transform="translate(861.324 30)">Oct 2026</text></g></g><g fill="none" class="axis axis--y" font-family="sans-serif" font-size="10"><g class="tick"><path stroke="#e1e7e7" d="M110 117.167h820"/><text y=".5" fill="#000" dx="-10" dy=".32em" transform="translate(110 116.667)">Express 4</text></g><g class="tick"><path stroke="#e1e7e7" d="M110 250.5h820"/><text y=".5" fill="#000" dx="-10" dy=".32em" transform="translate(110 250)">Express 5</text></g><g class="tick"><path stroke="#e1e7e7" d="M110 383.833h820"/><text y=".5" fill="#000" dx="-10" dy=".32em" transform="translate(110 383.333)">Express 6</text></g><path stroke="#89a19d" d="M110 470h820"/></g><path d="M451.168 70h410v93.333h-410z" class="bar maintenance"/><path d="M340.168 40h2v93.333h-2z" class="bar-join maintenance" style="opacity:1" transform="translate(110 30)"/><text x="356.168" y="88.667" class="label" style="opacity:1" transform="translate(110 30)">maintenance</text><path d="M110 70h341.168v93.333H110z" class="bar active"/><text x="15" y="88.667" class="label" style="opacity:1" transform="translate(110 30)">active</text><path d="M724.252 203.333H930v93.333H724.252z" class="bar maintenance"/><path d="M613.252 173.333h2v93.333h-2z" class="bar-join maintenance" style="opacity:1" transform="translate(110 30)"/><text x="629.252" y="222" class="label" style="opacity:1" transform="translate(110 30)">maintenance</text><path d="M451.168 203.333h273.084v93.333H451.168z" class="bar active"/><path d="M340.168 173.333h2v93.333h-2z" class="bar-join active" style="opacity:1" transform="translate(110 30)"/><text x="356.168" y="222" class="label" style="opacity:1" transform="translate(110 30)">active</text><path d="M315 203.333h136.168v93.333H315z" class="bar current"/><text x="220" y="222" class="label" style="opacity:1" transform="translate(110 30)">current</text><path d="M724.252 336.667H930V430H724.252z" class="bar active"/><path d="M613.252 306.667h2V400h-2z" class="bar-join active" style="opacity:1" transform="translate(110 30)"/><text x="629.252" y="355.333" class="label" style="opacity:1" transform="translate(110 30)">active</text><path d="M588.084 336.667h136.168V430H588.084z" class="bar current"/><text x="493.084" y="355.333" class="label" style="opacity:1" transform="translate(110 30)">current</text></g></svg>