<svg xmlns="http://www.w3.org/2000/svg" width="960" height="500"><defs><style>.current{fill:#2aa748}.active{fill:#47b4ff}.maintenance,.tick text{fill:#89a19d}.bar-join,.label{fill:#fff}.bar-join.current{display:none}.tick text{font:16px sans-serif}.axis--y .tick text{text-anchor:end}.label{font:20px sans-serif;font-weight:100;text-anchor:start;dominant-baseline:middle;text-transform:uppercase}</style></defs><g id="bar-container"><g fill="none" class="axis axis--x" font-family="sans-serif" font-size="10" text-anchor="middle"><g class="tick"><path stroke="#89a19d" d="M133.122 30v440"/><text x=".5" fill="#000" dy="-10" transform="translate(132.622 30)">Oct 2024</text></g><g class="tick"><path stroke="#89a19d" stroke-dasharray="2,2" d="M202.048 30v440"/><text x=".5" fill="#000" dy="-10" transform="translate(201.548 30)">Jan 2025</text></g><g class="tick"><path stroke="#89a19d" d="M269.414 30v440"/><text x=".5" fill="#000" dy="-10" transform="translate(268.914 30)">Apr 2025</text></g><g class="tick"><path stroke="#89a19d" stroke-dasharray="2,2" d="M337.56 30v440"/><text x=".5" fill="#000" dy="-10" transform="translate(337.06 30)">Jul 2025</text></g><g class="tick"><path stroke="#89a19d" d="M406.455 30v440"/><text x=".5" fill="#000" dy="-10" transform="translate(405.955 30)">Oct 2025</text></g><g class="tick"><path stroke="#89a19d" stroke-dasharray="2,2" d="M475.381 30v440"/><text x=".5" fill="#000" dy="-10" transform="translate(474.881 30)">Jan 2026</text></g><g class="tick"><path stroke="#89a19d" d="M542.747 30v440"/><text x=".5" fill="#000" dy="-10" transform="translate(542.247 30)">Apr 2026</text></g><g class="tick"><path stroke="#89a19d" stroke-dasharray="2,2" d="M610.893 30v440"/><text x=".5" fill="#000" dy="-10" transform="translate(610.393 30)">Jul 2026</text></g><g class="tick"><path stroke="#89a19d" d="M679.788 30v440"/><text x=".5" fill="#000" dy="-10" transform="translate(679.288 30)">Oct 2026</text></g><g class="tick"><path stroke="#89a19d" stroke-dasharray="2,2" d="M748.715 30v440"/><text x=".5" fill="#000" dy="-10" transform="translate(748.215 30)">Jan 2027</text></g><g class="tick"><path stroke="#89a19d" d="M816.08 30v440"/><text x=".5" fill="#000" dy="-10" transform="translate(815.58 30)">Apr 2027</text></g><g class="tick"><path stroke="#89a19d" stroke-dasharray="2,2" d="M884.227 30v440"/><text x=".5" fill="#000" dy="-10" transform="translate(883.727 30)">Jul 2027</text></g></g><g fill="none" class="axis axis--y" font-family="sans-serif" font-size="10"><g class="tick"><path stroke="#e1e7e7" d="M110 97.012h820"/><text y=".5" fill="#000" dx="-10" dy=".32em" transform="translate(110 96.512)">Express 4</text></g><g class="tick"><path stroke="#e1e7e7" d="M110 199.337h820"/><text y=".5" fill="#000" dx="-10" dy=".32em" transform="translate(110 198.837)">Express 5</text></g><g class="tick"><path stroke="#e1e7e7" d="M110 301.663h820"/><text y=".5" fill="#000" dx="-10" dy=".32em" transform="translate(110 301.163)">Express 6</text></g><g class="tick"><path stroke="#e1e7e7" d="M110 403.988h820"/><text y=".5" fill="#000" dx="-10" dy=".32em" transform="translate(110 403.488)">Express 7</text></g><path stroke="#89a19d" d="M110 470h820"/></g><path d="M115.991 60.698h546.667v71.628H115.991z" class="bar maintenance"/><path d="M4.991 30.698h2v71.628h-2z" class="bar-join maintenance" style="opacity:1" transform="translate(110 30)"/><text x="20.991" y="68.512" class="label" style="opacity:1" transform="translate(110 30)">maintenance</text><path d="M110 60.698h5.991v71.628H110z" class="bar active"/><path d="M389.324 163.023h273.333v71.628H389.324z" class="bar maintenance"/><path d="M278.324 133.023h2v71.628h-2z" class="bar-join maintenance" style="opacity:1" transform="translate(110 30)"/><text x="294.324" y="170.837" class="label" style="opacity:1" transform="translate(110 30)">maintenance</text><path d="M115.991 163.023h273.333v71.628H115.991z" class="bar active"/><path d="M4.991 133.023h2v71.628h-2z" class="bar-join active" style="opacity:1" transform="translate(110 30)"/><text x="20.991" y="170.837" class="label" style="opacity:1" transform="translate(110 30)">active</text><path d="M110 163.023h5.991v71.628H110z" class="bar current"/><path d="M662.658 265.349H930v71.628H662.658z" class="bar maintenance"/><path d="M551.658 235.349h2v71.628h-2z" class="bar-join maintenance" style="opacity:1" transform="translate(110 30)"/><text x="567.658" y="273.163" class="label" style="opacity:1" transform="translate(110 30)">maintenance</text><path d="M389.324 265.349h273.333v71.628H389.324z" class="bar active"/><path d="M278.324 235.349h2v71.628h-2z" class="bar-join active" style="opacity:1" transform="translate(110 30)"/><text x="294.324" y="273.163" class="label" style="opacity:1" transform="translate(110 30)">active</text><path d="M320.429 265.349h68.895v71.628h-68.895z" class="bar current"/><path d="M662.658 367.674H930v71.628H662.658z" class="bar active"/><path d="M551.658 337.674h2v71.628h-2z" class="bar-join active" style="opacity:1" transform="translate(110 30)"/><text x="567.658" y="375.488" class="label" style="opacity:1" transform="translate(110 30)">active</text><path d="M593.763 367.674h68.895v71.628h-68.895z" class="bar current"/></g></svg>